<?xml version="1.0" encoding="UTF-8" standalone="no" ?>
<!DOCTYPE svg PUBLIC "-//W3C//DTD SVG 1.1//EN" "http://www.w3.org/Graphics/SVG/1.1/DTD/svg11.dtd">
<svg xmlns="http://www.w3.org/2000/svg" xmlns:xlink="http://www.w3.org/1999/xlink" version="1.1" width="1280" height="1024" viewBox="0 0 1280 1024" xml:space="preserve">
<desc>Created with Fabric.js 5.3.0</desc>
<defs>
</defs>
<g transform="matrix(1 0 0 1 640 512)" id="background-logo"  >
<rect style="stroke: none; stroke-width: 0; stroke-dasharray: none; stroke-linecap: butt; stroke-dashoffset: 0; stroke-linejoin: miter; stroke-miterlimit: 4; fill: rgb(255,255,255); fill-opacity: 0; fill-rule: nonzero; opacity: 1;"  paint-order="stroke"  x="-640" y="-512" rx="0" ry="0" width="1280" height="1024" />
</g>
<g transform="matrix(1.9211538461538462 0 0 1.9211538461538462 640 402.6927284435765)" id="logo-logo"  >
<g style=""  paint-order="stroke"   >
		<g transform="matrix(0.1839978433265773 0 0 0.18399784332657732 0 0)"  >
<path style="stroke: none; stroke-width: 1; stroke-dasharray: none; stroke-linecap: butt; stroke-dashoffset: 0; stroke-linejoin: miter; stroke-miterlimit: 4; fill: rgb(16,185,129); fill-rule: nonzero; opacity: 1;"  paint-order="stroke"  transform=" translate(-299.99858313398613, -299.9999999999999)" d="M 521.87 435.93 C 511.53000000000003 462.72 489.93 486.06 460.53 503.87 C 423.34 526.37 372.65 540.28 317.28 540.28 C 261.87 540.28 211.17999999999998 526.37 174.02999999999997 503.87 C 131.86999999999998 478.37 105.80999999999997 441.53 105.80999999999997 399.37 C 105.80999999999997 357.25 131.86999999999998 320.37 174.02999999999997 294.87 C 199.83999999999997 279.25 232.21999999999997 267.75 268.15 262.21000000000004 L 268.15 208.12000000000003 C 219.83999999999997 216.15000000000003 176.83999999999997 235.78000000000003 143.61999999999998 263.34000000000003 C 101.21999999999997 298.5 74.96999999999997 346.62 74.96999999999997 399.37 C 74.96999999999997 452.12 101.21999999999997 500.25 143.61999999999998 535.4300000000001 C 187.77999999999997 572.0300000000001 249.14999999999998 594.6500000000001 317.28 594.6500000000001 C 408.42999999999995 594.6500000000001 475.46999999999997 552.1500000000001 505.37 499.93000000000006 C 515.5600000000001 482.0900000000001 521.3100000000001 463.44000000000005 522 445.44000000000005 C 522.03 444.51000000000005 522.09 436.15000000000003 521.87 435.93000000000006 z M 300.9 -3.75 L 300.9 19.06 L 300.9 84.59 L 300.9 138.97 L 300.9 204.53 L 300.9 258.87 L 300.9 324.44 L 300.9 364.4 L 300.9 399.37 L 333.65 399.37 L 333.65 364.4 C 372.92999999999995 367.59 402.59 382.03 402.59 399.37 C 402.59 419.06 364.4 435 317.28 435 C 270.15 435 231.96999999999997 419.06 231.96999999999997 399.37 C 231.96999999999997 387.34000000000003 246.24999999999997 376.69 268.15999999999997 370.25 L 268.15999999999997 328.59000000000003 C 244.93999999999997 333.15000000000003 224.33999999999997 340.87 207.77999999999997 350.90000000000003 C 185.24999999999997 364.53000000000003 171.30999999999997 381.78000000000003 171.30999999999997 399.37 C 171.30999999999997 416.97 185.24999999999997 434.22 207.77999999999997 447.84000000000003 C 235.27999999999997 464.50000000000006 273.96999999999997 474.81000000000006 317.28 474.81000000000006 C 360.55999999999995 474.81000000000006 399.25 464.50000000000006 426.75 447.84000000000003 C 449.28 434.22 463.25 416.97 463.25 399.37 C 463.25 381.78000000000003 449.28 364.53 426.75 350.9 C 402.75 336.37 370.28 326.69 333.65 324.44 L 333.65 258.69 C 457.53 262.21999999999997 531.9399999999999 305.53 565.75 362.37 C 581.5 388.84000000000003 588.34 418.09000000000003 587.22 447.75 C 586.12 476.65 577.47 505.65 562.15 532.4 C 521.81 602.8399999999999 434.25 660.15 317.28 660.15 C 233.49999999999997 660.15 157.30999999999997 631.75 101.93999999999997 585.81 C 44.80999999999997 538.4699999999999 9.46999999999997 472.55999999999995 9.46999999999997 399.36999999999995 C 9.46999999999997 326.18999999999994 44.809999999999974 260.28 101.93999999999997 212.93999999999994 C 146.27999999999997 176.18999999999994 203.93999999999997 150.62999999999994 268.15999999999997 141.90999999999994 L 268.15999999999997 87.52999999999994 C 193.83999999999997 97.55999999999995 127.43999999999997 129.96999999999994 77.02999999999997 177.18999999999994 C 16.21999999999997 234.11999999999995 -21.380000000000024 312.7199999999999 -21.380000000000024 399.36999999999995 C -21.380000000000024 486.05999999999995 16.219999999999978 564.6199999999999 77.02999999999997 621.5899999999999 C 138.33999999999997 678.9999999999999 223.24999999999997 714.53 317.28 714.53 C 450.18999999999994 714.53 549.62 637 594.81 541.8399999999999 C 611.0899999999999 507.5299999999999 620.31 471.1499999999999 621.5 435.5299999999999 C 622.62 400.5899999999999 616.03 366.2499999999999 600.78 335.3399999999999 C 565.06 262.9999999999999 480.30999999999995 208.08999999999992 333.65 204.30999999999992 L 333.65 138.80999999999992 C 509.5 142.9099999999999 613.4 213.4099999999999 659.3399999999999 306.43999999999994 C 679.4999999999999 347.2199999999999 688.18 392.11999999999995 686.7199999999999 437.5899999999999 C 685.2499999999999 482.37999999999994 673.8999999999999 527.5899999999999 653.8999999999999 569.7199999999999 C 598.8699999999999 685.5899999999999 478.2499999999999 779.9999999999999 317.27999999999986 779.9999999999999 C 206.15999999999985 779.9999999999999 105.36999999999986 737.6599999999999 32.27999999999986 669.1599999999999 C -41.340000000000146 600.2199999999998 -86.88000000000014 504.83999999999986 -86.88000000000014 399.36999999999983 C -86.88000000000014 293.9399999999998 -41.34000000000014 198.55999999999983 32.27999999999986 129.58999999999986 C 94.43999999999986 71.37999999999985 176.61999999999986 32.02999999999986 268.15999999999985 21.55999999999986 L 268.15999999999985 -180.00000000000014 L 300.89999999999986 -180.00000000000014 L 300.89999999999986 -156.03000000000014 L 383.65999999999985 -123.90000000000015 L 383.65999999999985 -93.65000000000015 L 421.58999999999986 -78.97000000000014 L 509.52999999999986 -44.84000000000014 L 421.58999999999986 -10.750000000000135 L 333.64999999999986 23.349999999999866 L 333.64999999999986 -16.470000000000134 L 300.89999999999986 -3.7500000000001332 z" stroke-linecap="round" />
</g>
</g>
</g>
<g transform="matrix(1.9211538461538462 0 0 1.9211538461538462 639.9481288461537 668.297779623158)" id="text-logo"  >
<g style=""  paint-order="stroke"   >
		<g transform="matrix(1 0 0 1 0 0)" id="text-logo-path-0"  >
<path style="stroke: none; stroke-width: 0; stroke-dasharray: none; stroke-linecap: butt; stroke-dashoffset: 0; stroke-linejoin: miter; stroke-miterlimit: 4; fill: rgb(240,253,244); fill-rule: nonzero; opacity: 1;"  paint-order="stroke"  transform=" translate(-144.82999999999998, 18.765)" d="M 6.7 -1.94 L 6.7 -13.72 L 15.82 -13.72 L 24.03 -0.49 C 24.41 0.11 25.11 0.49 25.87 0.49 C 27.05 0.49 28.03 -0.43 28.03 -1.67 C 28.03 -2.11 27.92 -2.48 27.7 -2.81 L 20.57 -14.26 C 25.49 -15.82 29.05 -20.36 29.05 -25.81 C 29.05 -32.4 23.6 -37.8 17.01 -37.8 L 4.59 -37.8 L 4.54 -37.8 C 3.35 -37.8 2.38 -36.83 2.38 -35.64 L 2.38 -1.94 C 2.38 -0.76 3.35 0.22 4.54 0.22 C 5.72 0.22 6.7 -0.76 6.7 -1.94 Z M 6.7 -18.04 L 6.7 -33.48 L 17.01 -33.48 C 21.22 -33.48 24.73 -30.02 24.73 -25.81 C 24.73 -21.49 21.22 -18.04 17.01 -18.04 Z M 42.44 -1.73 L 42.44 -11.88 L 62.48 -11.88 L 62.48 -1.73 C 62.48 -0.54 63.45 0.43 64.64 0.43 C 65.83 0.43 66.8 -0.54 66.8 -1.73 L 66.8 -23.65 C 66.8 -31.59 60.37 -38.02 52.49 -38.02 C 44.55 -38.02 38.12 -31.59 38.12 -23.65 L 38.12 -1.73 C 38.12 -0.54 39.1 0.43 40.28 0.43 C 41.47 0.43 42.44 -0.54 42.44 -1.73 Z M 42.44 -16.2 L 42.44 -23.65 C 42.44 -29.21 46.93 -33.7 52.49 -33.7 C 58 -33.7 62.48 -29.21 62.48 -23.65 L 62.48 -16.2 Z M 80.19 -1.94 L 80.19 -35.86 C 80.19 -37.04 79.22 -38.02 78.03 -38.02 C 76.84 -38.02 75.87 -37.04 75.87 -35.86 L 75.87 -1.94 C 75.87 -0.76 76.84 0.22 78.03 0.22 C 79.22 0.22 80.19 -0.76 80.19 -1.94 Z M 89.26 -2.16 C 89.26 -0.97 90.23 0 91.42 0 L 99.25 0 C 109.67 0 118.15 -8.48 118.15 -18.9 C 118.15 -29.32 109.67 -37.8 99.25 -37.8 L 91.42 -37.8 C 90.23 -37.8 89.26 -36.83 89.26 -35.64 Z M 93.58 -4.32 L 93.58 -33.48 L 99.25 -33.48 C 107.3 -33.48 113.83 -26.95 113.83 -18.9 C 113.83 -10.85 107.3 -4.32 99.25 -4.32 Z M 163.4 -15.66 L 171.18 -15.66 L 171.18 -7.83 C 168.53 -5.45 165.29 -4.1 161.46 -4.1 C 153.31 -4.1 146.66 -10.75 146.66 -18.9 C 146.66 -27.05 153.31 -33.7 161.46 -33.7 C 164.92 -33.7 168.05 -32.51 170.53 -30.56 C 170.96 -30.24 171.4 -30.13 171.88 -30.13 C 173.07 -30.13 174.04 -31.1 174.04 -32.29 C 174.04 -32.99 173.72 -33.59 173.23 -33.97 C 169.99 -36.5 165.89 -38.02 161.46 -38.02 C 150.93 -38.02 142.34 -29.43 142.34 -18.9 C 142.34 -8.37 150.93 0.22 161.46 0.22 C 166.59 0.22 171.18 -1.78 174.58 -5.08 C 175.18 -5.56 175.5 -6.26 175.5 -7.02 L 175.5 -17.28 C 175.5 -18.79 174.31 -19.98 172.8 -19.98 L 163.4 -19.98 C 162.22 -19.98 161.24 -19.01 161.24 -17.82 C 161.24 -16.63 162.22 -15.66 163.4 -15.66 Z M 203.69 -4.1 C 195.53 -4.1 188.89 -10.75 188.89 -18.9 C 188.89 -27.05 195.53 -33.7 203.69 -33.7 C 211.84 -33.7 218.48 -27.05 218.48 -18.9 C 218.48 -10.75 211.84 -4.1 203.69 -4.1 Z M 203.69 0.22 C 214.22 0.22 222.8 -8.37 222.8 -18.9 C 222.8 -29.43 214.22 -38.02 203.69 -38.02 C 193.16 -38.02 184.57 -29.43 184.57 -18.9 C 184.57 -8.37 193.16 0.22 203.69 0.22 Z M 234.04 0 L 252.88 0 C 254.07 0 255.04 -0.97 255.04 -2.16 C 255.04 -3.35 254.07 -4.32 252.88 -4.32 L 236.2 -4.32 L 236.2 -35.86 C 236.2 -37.04 235.22 -38.02 234.04 -38.02 C 232.85 -38.02 231.88 -37.04 231.88 -35.86 L 231.88 -2.16 C 231.88 -0.97 232.85 0 234.04 0 Z M 268.43 -1.94 L 268.43 -15.66 L 282.96 -15.66 C 284.15 -15.66 285.12 -16.63 285.12 -17.82 C 285.12 -19.01 284.15 -19.98 282.96 -19.98 L 268.43 -19.98 L 268.43 -33.48 L 285.12 -33.48 C 286.31 -33.48 287.28 -34.45 287.28 -35.64 C 287.28 -36.83 286.31 -37.8 285.12 -37.8 L 266.27 -37.8 C 265.09 -37.8 264.11 -36.83 264.11 -35.64 L 264.11 -1.94 C 264.11 -0.76 265.09 0.22 266.27 0.22 C 267.46 0.22 268.43 -0.76 268.43 -1.94 Z" stroke-linecap="round" />
</g>
</g>
</g>
<g transform="matrix(1.9211538461538462 0 0 1.9211538461538462 639.49523275865 758.9980654693119)" id="tagline-ac30dc66-b680-47e8-9c47-2b40784bd914-logo"  >
<g style=""  paint-order="stroke"   >
		<g transform="matrix(1 0 0 1 0 0)" id="tagline-ac30dc66-b680-47e8-9c47-2b40784bd914-logo-path-0"  >
<path style="stroke: none; stroke-width: 0; stroke-dasharray: none; stroke-linecap: butt; stroke-dashoffset: 0; stroke-linejoin: miter; stroke-miterlimit: 4; fill: rgb(110,231,183); fill-rule: nonzero; opacity: 1;"  paint-order="stroke"  transform=" translate(-173.65499999999997, 9.715)" d="M 3.47 -1.01 L 3.47 -4.73 C 3.47 -5.43 4.03 -5.99 4.73 -5.99 L 8.18 -5.99 C 11.87 -5.99 14.98 -9.1 14.98 -12.8 C 14.98 -16.49 11.87 -19.6 8.18 -19.6 L 2.77 -19.6 C 1.93 -19.6 1.23 -18.9 1.23 -18.06 L 1.23 -1.01 C 1.23 -0.39 1.74 0.11 2.35 0.11 C 2.97 0.11 3.47 -0.39 3.47 -1.01 Z M 3.47 -9.49 L 3.47 -16.1 C 3.47 -16.8 4.03 -17.36 4.73 -17.36 L 8.18 -17.36 C 10.78 -17.36 12.74 -15.4 12.74 -12.8 C 12.74 -10.19 10.78 -8.23 8.18 -8.23 L 4.73 -8.23 C 4.03 -8.23 3.47 -8.79 3.47 -9.49 Z M 31.44 -1.01 L 31.44 -4.73 C 31.44 -5.43 32 -5.99 32.7 -5.99 L 34.58 -5.99 C 35.28 -5.99 36.18 -5.54 36.6 -4.98 L 40.35 -0.11 C 40.54 0.17 40.85 0.31 41.22 0.31 C 41.8 0.31 42.34 -0.17 42.34 -0.81 C 42.34 -1.04 42.25 -1.29 42.11 -1.48 L 39.12 -5.38 C 38.7 -5.94 38.86 -6.61 39.51 -6.92 C 41.55 -8.09 42.95 -10.3 42.95 -12.8 C 42.95 -16.49 39.84 -19.6 36.15 -19.6 L 30.74 -19.6 C 29.9 -19.6 29.2 -18.9 29.2 -18.06 L 29.2 -1.01 C 29.2 -0.39 29.71 0.11 30.32 0.11 C 30.94 0.11 31.44 -0.39 31.44 -1.01 Z M 31.44 -9.49 L 31.44 -16.1 C 31.44 -16.8 32 -17.36 32.7 -17.36 L 36.15 -17.36 C 38.75 -17.36 40.71 -15.4 40.71 -12.8 C 40.71 -10.19 38.75 -8.23 36.15 -8.23 L 32.7 -8.23 C 32 -8.23 31.44 -8.79 31.44 -9.49 Z M 67.14 -2.1 C 62.89 -2.1 59.42 -5.57 59.42 -9.83 C 59.42 -14.03 62.89 -17.5 67.14 -17.5 C 71.37 -17.5 74.84 -14.03 74.84 -9.83 C 74.84 -5.57 71.37 -2.1 67.14 -2.1 Z M 67.14 0.14 C 72.6 0.14 77.08 -4.34 77.08 -9.83 C 77.08 -15.26 72.6 -19.74 67.14 -19.74 C 61.66 -19.74 57.18 -15.26 57.18 -9.83 C 57.18 -4.34 61.66 0.14 67.14 0.14 Z M 101.28 -2.1 C 97.02 -2.1 93.55 -5.57 93.55 -9.83 C 93.55 -14.03 97.02 -17.5 101.28 -17.5 C 105.5 -17.5 108.98 -14.03 108.98 -9.83 C 108.98 -5.57 105.5 -2.1 101.28 -2.1 Z M 101.28 0.14 C 106.74 0.14 111.22 -4.34 111.22 -9.83 C 111.22 -15.26 106.74 -19.74 101.28 -19.74 C 95.79 -19.74 91.31 -15.26 91.31 -9.83 C 91.31 -4.34 95.79 0.14 101.28 0.14 Z M 127.68 -1.01 L 127.68 -7.42 C 127.68 -8.12 128.24 -8.68 128.94 -8.68 L 135.07 -8.68 C 135.69 -8.68 136.19 -9.18 136.19 -9.8 C 136.19 -10.42 135.69 -10.92 135.07 -10.92 L 128.94 -10.92 C 128.24 -10.92 127.68 -11.48 127.68 -12.18 L 127.68 -16.1 C 127.68 -16.8 128.24 -17.36 128.94 -17.36 L 137.03 -17.36 C 137.65 -17.36 138.15 -17.86 138.15 -18.48 C 138.15 -19.1 137.65 -19.6 137.03 -19.6 L 126.98 -19.6 C 126.14 -19.6 125.44 -18.9 125.44 -18.06 L 125.44 -1.01 C 125.44 -0.39 125.94 0.11 126.56 0.11 C 127.18 0.11 127.68 -0.39 127.68 -1.01 Z M 179.7 -2.1 C 175.45 -2.1 171.98 -5.57 171.98 -9.83 C 171.98 -14.03 175.45 -17.5 179.7 -17.5 C 183.93 -17.5 187.4 -14.03 187.4 -9.83 C 187.4 -5.57 183.93 -2.1 179.7 -2.1 Z M 179.7 0.14 C 185.16 0.14 189.64 -4.34 189.64 -9.83 C 189.64 -15.26 185.16 -19.74 179.7 -19.74 C 174.22 -19.74 169.74 -15.26 169.74 -9.83 C 169.74 -4.34 174.22 0.14 179.7 0.14 Z M 206.11 -1.01 L 206.11 -7.42 C 206.11 -8.12 206.67 -8.68 207.37 -8.68 L 213.5 -8.68 C 214.12 -8.68 214.62 -9.18 214.62 -9.8 C 214.62 -10.42 214.12 -10.92 213.5 -10.92 L 207.37 -10.92 C 206.67 -10.92 206.11 -11.48 206.11 -12.18 L 206.11 -16.1 C 206.11 -16.8 206.67 -17.36 207.37 -17.36 L 215.46 -17.36 C 216.08 -17.36 216.58 -17.86 216.58 -18.48 C 216.58 -19.1 216.08 -19.6 215.46 -19.6 L 205.41 -19.6 C 204.57 -19.6 203.87 -18.9 203.87 -18.06 L 203.87 -1.01 C 203.87 -0.39 204.37 0.11 204.99 0.11 C 205.6 0.11 206.11 -0.39 206.11 -1.01 Z M 250.4 -1.01 L 250.4 -4.73 C 250.4 -5.43 250.96 -5.99 251.66 -5.99 L 255.11 -5.99 C 258.8 -5.99 261.91 -9.1 261.91 -12.8 C 261.91 -16.49 258.8 -19.6 255.11 -19.6 L 249.7 -19.6 C 248.86 -19.6 248.16 -18.9 248.16 -18.06 L 248.16 -1.01 C 248.16 -0.39 248.67 0.11 249.28 0.11 C 249.9 0.11 250.4 -0.39 250.4 -1.01 Z M 250.4 -9.49 L 250.4 -16.1 C 250.4 -16.8 250.96 -17.36 251.66 -17.36 L 255.11 -17.36 C 257.71 -17.36 259.67 -15.4 259.67 -12.8 C 259.67 -10.19 257.71 -8.23 255.11 -8.23 L 251.66 -8.23 C 250.96 -8.23 250.4 -8.79 250.4 -9.49 Z M 287.73 -2.24 L 279.64 -2.24 C 278.94 -2.24 278.38 -2.8 278.38 -3.5 L 278.38 -18.59 C 278.38 -19.21 277.87 -19.71 277.26 -19.71 C 276.64 -19.71 276.14 -19.21 276.14 -18.59 L 276.14 -1.54 C 276.14 -0.7 276.84 0 277.68 0 L 287.73 0 C 288.34 0 288.85 -0.5 288.85 -1.12 C 288.85 -1.74 288.34 -2.24 287.73 -2.24 Z M 320.4 -1.37 L 313.38 -18.62 C 312.79 -20.1 310.77 -20.1 310.18 -18.62 L 303.16 -1.37 C 303.1 -1.26 303.07 -1.09 303.07 -0.92 C 303.07 -0.34 303.55 0.2 304.19 0.2 C 304.61 0.2 305.03 -0.08 305.2 -0.48 L 306.24 -3.02 C 306.49 -3.67 307.27 -4.2 307.97 -4.2 L 315.59 -4.2 C 316.29 -4.2 317.07 -3.67 317.32 -3.02 L 318.36 -0.48 C 318.53 -0.08 318.92 0.2 319.37 0.2 C 319.98 0.2 320.49 -0.31 320.49 -0.92 C 320.49 -1.06 320.46 -1.23 320.4 -1.37 Z M 308.11 -7.62 L 311.3 -15.43 C 311.56 -16.07 312 -16.07 312.26 -15.43 L 315.45 -7.62 C 315.7 -6.97 315.36 -6.44 314.66 -6.44 L 308.9 -6.44 C 308.2 -6.44 307.86 -6.97 308.11 -7.62 Z M 344.09 -19.32 L 339.05 -12.66 C 338.63 -12.1 337.96 -12.1 337.54 -12.66 L 332.5 -19.32 C 332.3 -19.57 332 -19.74 331.63 -19.74 C 331.02 -19.74 330.51 -19.24 330.51 -18.62 C 330.51 -18.4 330.6 -18.12 330.74 -17.95 L 336.42 -10.44 C 336.84 -9.88 337.18 -8.88 337.18 -8.18 L 337.18 -1.01 C 337.18 -0.39 337.68 0.11 338.3 0.11 C 338.91 0.11 339.42 -0.39 339.42 -1.01 L 339.42 -8.18 C 339.42 -8.88 339.75 -9.88 340.17 -10.44 L 345.86 -17.95 C 346 -18.12 346.08 -18.37 346.08 -18.62 C 346.08 -19.24 345.58 -19.74 344.96 -19.74 C 344.62 -19.74 344.29 -19.57 344.09 -19.32 Z" stroke-linecap="round" />
</g>
</g>
</g>
</svg>